<svg id="Layer_1" data-name="Layer 1" xmlns="http://www.w3.org/2000/svg" viewBox="0 0 401.83 77"><defs><style>.cls-1{fill:#95989a;}.cls-2{fill:#0056a2;}</style></defs><title>logo-theme-alt</title><rect class="cls-1" x="180.83" y="10.81" width="1.5" height="54.17"/><path class="cls-2" d="M106.66,48.35c-.68-15.82-27.73-14-27.73-25.08,0-5.57,5.81-7.71,10.41-7.71a18.94,18.94,0,0,1,6.4,1.18,16.87,16.87,0,0,1,6,4.33l.4.56h1.46l-2.9-10.85h-1c-.43.75-2,.46-2,.46A36.66,36.66,0,0,0,90,10.1C79.76,9.51,69.74,14,69.74,24.15c0,17.1,27.68,13.82,27.68,26.41C97.42,56.21,90.55,60,86,60a26.58,26.58,0,0,1-9.68-1.92,22.16,22.16,0,0,1-7-5l-1.22.19L71.2,65.1H72a1.53,1.53,0,0,1,1.83-.79h0a42.81,42.81,0,0,0,11.28,1.48C99.12,65.78,107,57,106.66,48.35Z"/><path class="cls-2" d="M161.64,10.89H143.48v1.29L147.23,14h0l.13.06a2.47,2.47,0,0,1,1.16,2v.23l0,27.23c0,10.16-4.16,15.86-11.81,16.12l0,.05-1.24,0C127.4,59.72,123,54,123,43.57V21.89c0-3.1,0-4.79,0-5.83a2.46,2.46,0,0,1,1.16-2l.13-.06h0l3.75-1.84V10.89H109.92v1.29L113.67,14h0l.13.06A2.57,2.57,0,0,1,115,16.42V43.57c0,5.66-.15,10.92,4,15.49a16.16,16.16,0,0,0,6.78,4.28s.4.15,1.15.36l.93.24c3.6.87,11.21,2.11,18.16-.67l.11-.05.28-.1h0a16.2,16.2,0,0,0,6.18-4.06c4.14-4.57,4-9.83,4-15.49l0-27.19v0a2.57,2.57,0,0,1,1.18-2.26l.13-.06h0l3.75-1.84Z"/><path class="cls-2" d="M63.7,10.8H45.12v1.28l3.75,1.84h0L49,14a2.5,2.5,0,0,1,1.17,2.18V54.06c-.24,11.42-2.69,17.35-14.28,21.35v1.41s12.21-.08,17.72-6.68h0c2.9-3.34,4.65-8.43,5-16V16.35h0A2.57,2.57,0,0,1,59.81,14l.13-.06h0l3.75-1.84Z"/><path class="cls-2" d="M38.94,48.35c-.68-15.82-27.73-14-27.73-25.08,0-5.57,5.81-7.71,10.41-7.71A18.94,18.94,0,0,1,28,16.74a16.87,16.87,0,0,1,6,4.33l.4.56h1.46L33,10.79H32c-.43.75-2,.46-2,.46a36.66,36.66,0,0,0-7.69-1.15C12,9.51,2,14,2,24.15,2,41.25,29.7,38,29.7,50.56c0,5.65-6.87,9.41-11.47,9.41a26.53,26.53,0,0,1-9.67-1.92,22.16,22.16,0,0,1-7-5l-1.23.19L3.48,65.1h.74a1.55,1.55,0,0,1,1.84-.79h0a42.94,42.94,0,0,0,11.29,1.48C31.4,65.78,39.31,57,38.94,48.35Z"/><path class="cls-1" d="M203.47,31.22l-1.19-4.56.47-.08a7,7,0,0,0,2.65,2,9.37,9.37,0,0,0,3.63.72c2.34,0,4.47-1.41,4.47-3.54,0-4.53-10.56-3.73-10.56-10.12,0-3.59,3.35-5.27,7-5.27a15.81,15.81,0,0,1,3.54.47.67.67,0,0,0,.77-.25h.36l1.11,4.12h-.56a2,2,0,0,0-.16-.23,7,7,0,0,0-2.24-1.63,7.66,7.66,0,0,0-2.49-.44c-1.85,0-4,.8-4,2.9,0,3.82,10.36,3.73,10.61,9.62.14,3.23-2.6,6.55-8.13,6.55a18.1,18.1,0,0,1-4.23-.55.55.55,0,0,0-.69.3Z"/><path class="cls-1" d="M234.13,31.06c-.22-.34-.55-.28-.88-.2a12.72,12.72,0,0,1-3.1.39c-7,0-11.41-3.95-11.41-10.34,0-6.19,4.37-10.33,10.48-10.33a21.49,21.49,0,0,1,4.44.52c.42.09.56,0,.67-.25h.39l.93,4.34h-.49a7,7,0,0,0-5.75-2.46c-4.4.09-7.27,3.4-7.27,7.74s3,8.51,7.6,8.51a8.45,8.45,0,0,0,5.8-2.1h.5l-1.6,4.18Z"/><path class="cls-1" d="M251.61,31.06v-.53l1.35-.69a.89.89,0,0,0,.53-.91V21.19h-10.7v7.74a.89.89,0,0,0,.52.91l1.36.69v.53h-6.94v-.53l1.36-.69a.89.89,0,0,0,.52-.91v-16a.91.91,0,0,0-.52-.92l-1.36-.69V10.8h6.94v.52l-1.36.69a.91.91,0,0,0-.52.92v6h10.7v-6A.9.9,0,0,0,253,12l-1.35-.69V10.8h6.93v.52l-1.35.69a.9.9,0,0,0-.53.92v16a.89.89,0,0,0,.53.91l1.35.69v.53Z"/><path class="cls-1" d="M271.15,31.47c-5.8,0-11.08-4-11.08-10.56s5.28-10.55,11.08-10.55,11.08,4,11.08,10.55S277,31.47,271.15,31.47Zm7.68-10.56c0-4.72-3.2-8.34-7.68-8.34s-7.68,3.62-7.68,8.34,3.2,8.35,7.68,8.35S278.83,25.64,278.83,20.91Z"/><path class="cls-1" d="M295.42,31.47c-5.8,0-11.08-4-11.08-10.56s5.28-10.55,11.08-10.55,11.09,4,11.09,10.55S301.23,31.47,295.42,31.47Zm7.69-10.56c0-4.72-3.21-8.34-7.69-8.34s-7.68,3.62-7.68,8.34,3.21,8.35,7.68,8.35S303.11,25.64,303.11,20.91Z"/><path class="cls-1" d="M308.25,31.06v-.53l1.36-.69a.89.89,0,0,0,.52-.91v-16a.91.91,0,0,0-.52-.92l-1.36-.69V10.8h6.94v.52l-1.36.69a.91.91,0,0,0-.52.92V28.87h6.08a2.34,2.34,0,0,0,2.18-1l1.11-1.55h.61l-1.69,4.7Z"/><path class="cls-1" d="M342.47,31.47c-5.8,0-11.08-4-11.08-10.56s5.28-10.55,11.08-10.55,11.09,4,11.09,10.55S348.28,31.47,342.47,31.47Zm7.69-10.56c0-4.72-3.21-8.34-7.69-8.34s-7.68,3.62-7.68,8.34,3.2,8.35,7.68,8.35S350.16,25.64,350.16,20.91Z"/><path class="cls-1" d="M355,31.06v-.53l1.35-.69a.89.89,0,0,0,.53-.91v-16a.9.9,0,0,0-.53-.92L355,11.32V10.8h11a1.9,1.9,0,0,0,.91-.17h.25l1.21,4.23h-.55l-1.1-1.52a1.19,1.19,0,0,0-1-.47h-5.69v6.22h3a1.08,1.08,0,0,0,.91-.44l.63-.78h.47v5.39h-.47l-.6-1.38a.9.9,0,0,0-.89-.55h-3.09V29a1,1,0,0,0,.44.86l1.46.72v.5Z"/><path class="cls-1" d="M202.53,65.05v-.52l1.35-.69a.88.88,0,0,0,.52-.9V47a.9.9,0,0,0-.52-.91l-1.35-.68v-.52h6.89v.52l-1.34.68a.89.89,0,0,0-.52.91v15.9a.86.86,0,0,0,.52.9l1.34.69v.52Z"/><path class="cls-1" d="M230.84,65.57c-.44,0-1,0-1.32,0a5.21,5.21,0,0,1-2.11-.49,8.79,8.79,0,0,1-3.16-2.78l-9.14-13V62.94a.88.88,0,0,0,.52.9l1.35.69v.52h-6.35v-.52l1.35-.69a.88.88,0,0,0,.52-.9V47a.9.9,0,0,0-.52-.91l-1.35-.68v-.52h4a1.89,1.89,0,0,1,1.84,1l10.16,14.38V47a.93.93,0,0,0-.44-.88l-1.43-.71v-.49H231v.49l-1.43.71a.91.91,0,0,0-.44.85V62.5a2.55,2.55,0,0,0,1.34,2.61l.36.13Z"/><path class="cls-1" d="M232.2,65.05v-.52l1.34-.69a.87.87,0,0,0,.53-.9V47a.89.89,0,0,0-.53-.91l-1.34-.68v-.52h10.93a1.86,1.86,0,0,0,.9-.17h.25l1.21,4.2h-.55l-1.1-1.51a1.17,1.17,0,0,0-1-.47h-5.66v6.18h3a1.07,1.07,0,0,0,.91-.44l.63-.76h.47v5.35h-.47l-.6-1.37a.88.88,0,0,0-.88-.55h-3.08V63a1,1,0,0,0,.44.85l1.46.72v.49Z"/><path class="cls-1" d="M256.5,65.46c-5.77,0-11-3.95-11-10.48s5.24-10.49,11-10.49,11,3.95,11,10.49S262.26,65.46,256.5,65.46ZM264.13,55c0-4.7-3.19-8.3-7.63-8.3s-7.64,3.6-7.64,8.3,3.19,8.29,7.64,8.29S264.13,59.67,264.13,55Z"/><path class="cls-1" d="M286.16,65.11c-4,.3-5.54-1.68-6-2.42L277,57.42a2.17,2.17,0,0,0-1.86-1.05h-1.41v6.57a.87.87,0,0,0,.53.9l1.34.69v.52H268.7v-.52l1.35-.69a.9.9,0,0,0,.52-1V47a.93.93,0,0,0-.44-.88l-1.43-.71v-.49h7.85c4.12,0,6.56,2.41,6.56,5.21a5.59,5.59,0,0,1-4.55,5.57A2.26,2.26,0,0,1,280.18,57c.6,1,2.85,4.75,3.46,5.44a6.1,6.1,0,0,0,1.78,1.51l1.4.66v.49ZM276,54.45c2,0,3.87-.76,3.78-4.23a3.23,3.23,0,0,0-3.51-3.48h-2.53v7.71Z"/><path class="cls-1" d="M306.1,65.05v-.52l1.35-.69a.88.88,0,0,0,.52-.9V48.83l-7.69,16.22h-.66l-7.77-16.28V62.94a.87.87,0,0,0,.53.9l1.34.69v.52h-6.34v-.52l1.34-.69a.87.87,0,0,0,.53-.9V47a.89.89,0,0,0-.53-.91l-1.34-.68v-.52h4.67A2,2,0,0,1,294,46.05l6.69,13.87,6.51-13.87a1.92,1.92,0,0,1,1.95-1.12h3.79v.52l-1.35.68a.9.9,0,0,0-.52.91v15.9a.88.88,0,0,0,.52.9l1.35.69v.52Z"/><path class="cls-1" d="M328.17,65.05v-.49l1.37-.69a.72.72,0,0,0,.35-1L328,58h-7.8l-1.81,4.7a.87.87,0,0,0,.3,1.15l1.4.69v.49h-6.56v-.49l1.37-.72a2.09,2.09,0,0,0,1-1.23l6-15.54c.24-.61.08-.91-.28-1.1l-1.09-.58v-.46h4a1.84,1.84,0,0,1,2.09,1.37l6.64,16.53a1.68,1.68,0,0,0,.91,1l1.37.72v.49Zm-4-17.24-3.05,8h6.07Z"/><path class="cls-1" d="M337.4,65.05v-.52l1.4-.69a.88.88,0,0,0,.52-.9V47.15h-4.2a1.17,1.17,0,0,0-1,.47l-1,1.34h-.55l1.24-4.23h.19a4.68,4.68,0,0,0,1.54.2h10.6a4.2,4.2,0,0,0,1.53-.2h.2L349.15,49h-.52l-1-1.34a1.16,1.16,0,0,0-1-.47h-4.17V62.94a.88.88,0,0,0,.52.9l1.4.69v.52Z"/><path class="cls-1" d="M349.82,65.05v-.52l1.34-.69a.87.87,0,0,0,.53-.9V47a.89.89,0,0,0-.53-.91l-1.34-.68v-.52h6.89v.52l-1.34.68a.89.89,0,0,0-.53.91v15.9a.87.87,0,0,0,.53.9l1.34.69v.52Z"/><path class="cls-1" d="M368.91,65.46c-5.77,0-11-3.95-11-10.48s5.25-10.49,11-10.49,11,3.95,11,10.49S374.67,65.46,368.91,65.46ZM376.54,55c0-4.7-3.19-8.3-7.63-8.3s-7.64,3.6-7.64,8.3,3.19,8.29,7.64,8.29S376.54,59.67,376.54,55Z"/><path class="cls-1" d="M401.32,65.57c-.44,0-1.05,0-1.32,0a5.13,5.13,0,0,1-2.11-.49,8.62,8.62,0,0,1-3.16-2.78l-9.15-13V62.94a.88.88,0,0,0,.52.9l1.35.69v.52h-6.34v-.52l1.35-.69a.87.87,0,0,0,.51-.9V47a.89.89,0,0,0-.51-.91l-1.35-.68v-.52h3.95a1.89,1.89,0,0,1,1.84,1l10.16,14.38V47a.93.93,0,0,0-.44-.88l-1.43-.71v-.49h6.29v.49l-1.43.71a.91.91,0,0,0-.44.85V62.5A2.54,2.54,0,0,0,401,65.11l.36.13Z"/></svg>